# xmcd CD database file generated by OrangeCD 5.2
#
# Track frame offsets:
#	150
#	12219
#	24741
#	37262
#	48305
#	57720
#	72030
#	85757
#	98672
#	106093
#	115673
#
# Disc length: 1719 seconds
#
# Revision: 0
# Processed by: cddbd v1.5.1PL2 Copyright (c) Steve Scherf et al.
# Submitted via: OrangeCD 5.2
#
DISCID=8806b50b
DTITLE=Joni Harms - Are We There Yet
DYEAR=1999
DGENRE=
TTITLE0=Friends
TTITLE1=Stan and Bert
TTITLE2=Why
TTITLE3=Ol' Red
TTITLE4=Tie My Shoe
TTITLE5=Music In The Barn
TTITLE6=Old Midnight
TTITLE7=Are We There Yet?
TTITLE8=Germs
TTITLE9=Talk Things Over With The Lord
TTITLE10=Olivia's Lullaby
EXTD=
EXTT0=
EXTT1=
EXTT2=
EXTT3=
EXTT4=
EXTT5=
EXTT6=
EXTT7=
EXTT8=
EXTT9=
EXTT10=
PLAYORDER=
